<?xml version="1.0" encoding="UTF-8"?><svg xmlns="http://www.w3.org/2000/svg" xmlns:xlink="http://www.w3.org/1999/xlink" height="503.5" preserveAspectRatio="xMidYMid meet" version="1.0" viewBox="0.0 -3.6 333.7 503.5" width="333.7" zoomAndPan="magnify"><defs><clipPath id="a"><path d="M 0 177 L 333.710938 177 L 333.710938 499.929688 L 0 499.929688 Z M 0 177"/></clipPath></defs><g><g clip-path="url(#a)" id="change1_1"><path d="M 290 457.3125 C 289.699219 466.210938 289.300781 475.011719 289 483.8125 C 262.601562 490.109375 231.898438 495.410156 197.699219 498.109375 C 142.5 502.410156 94.300781 498.511719 56.199219 492.410156 C 57 485.710938 57.699219 479.011719 58.5 472.3125 C 54.5 473.109375 39.5 475.609375 23.800781 467.109375 C 7 458.011719 1.300781 442.609375 0 438.910156 C 2.800781 424.511719 6.199219 409.609375 10.5 394.210938 C 26.601562 336.210938 50.101562 288.109375 73.300781 250.011719 C 84.199219 239.910156 97.101562 229.210938 112.101562 218.710938 C 131.601562 205.011719 150.199219 194.710938 166.5 186.8125 L 245.5 177.3125 L 262.800781 180.011719 C 268.898438 187.011719 275 194.011719 281.101562 201.011719 C 297 206.011719 306.898438 213.609375 313.398438 220.511719 C 346.699219 256.410156 338.699219 331.210938 292 406.011719 C 291.601562 416.710938 291.199219 427.410156 290.800781 438.109375 M 290.800781 438.109375 C 290.601562 444.511719 290.300781 450.910156 290.101562 457.3125" fill="#e0fbfc"/></g><g id="change2_1"><path d="M 225 28.410156 C 223.898438 25.8125 215.398438 7.011719 195.199219 1.511719 C 176.699219 -3.589844 155.898438 4.511719 143.898438 21.8125 C 129.300781 23.511719 116.5 32.109375 111.199219 44.609375 C 103.898438 61.8125 111.398438 84.109375 130.398438 95.410156 C 145.199219 101.910156 184.800781 116.8125 226.699219 101.8125 C 235.5 98.609375 243.199219 94.609375 249.800781 90.3125 C 258.699219 62.8125 253.898438 38.710938 240.300781 31.011719 C 237.5 29.410156 232.699219 27.511719 225 28.410156 Z M 235.601562 172.109375 C 237.898438 172.710938 241.699219 174.210938 245.5 177.3125 C 249.601562 180.710938 251.800781 184.511719 252.800781 186.710938 C 229.101562 215.910156 202.199219 245.609375 171.699219 274.8125 C 165.898438 280.3125 160.199219 285.710938 154.398438 290.910156 C 153.601562 278.910156 153.5 265.410156 154.601562 250.710938 C 156.398438 225.609375 161.300781 204.011719 166.5 186.710938 C 167.601562 186.511719 168.699219 186.3125 169.800781 186.011719 C 191.699219 181.410156 213.699219 176.8125 235.601562 172.109375" fill="#293241"/></g><g id="change3_1"><path d="M 92.699219 364.410156 C 73.199219 360.410156 58.300781 372.011719 57.699219 382.3125 C 57.199219 390.109375 64.699219 398.910156 75.898438 403.210938 C 76.898438 398.011719 78.601562 391.710938 81.300781 385.011719 C 84.800781 376.410156 89 369.511719 92.699219 364.410156 Z M 252.800781 336.011719 C 249.800781 335.410156 232 332.410156 215.898438 344.410156 C 197.898438 357.710938 196.898438 378.609375 196.800781 381.210938 C 201.199219 381.609375 216.300781 382.511719 230.800781 372.609375 C 249.5 359.8125 252.398438 339.3125 252.800781 336.011719 Z M 247.800781 111.511719 C 243.699219 120.511719 235.5 124.609375 232.398438 126.011719 C 230.898438 133.511719 229.601562 146.011719 233 160.710938 C 235 169.109375 238.101562 175.910156 240.800781 181.011719 C 234 191.609375 224.101562 204.410156 210.300781 216.910156 C 202.5 224.011719 194.800781 229.710938 187.800781 234.210938 C 185 233.109375 181.101562 231.109375 177.199219 227.910156 C 172.199219 223.710938 169.199219 219.210938 167.601562 216.210938 C 168.199219 210.109375 168.300781 202.609375 167.398438 194.109375 C 166.300781 183.609375 163.800781 174.8125 161.300781 168.109375 C 152.699219 161.011719 146.800781 149.3125 142 139.710938 C 129.398438 114.410156 129.199219 90.410156 130.101562 77.511719 C 134.300781 75.8125 141.800781 72.210938 148.800781 64.8125 C 155.699219 57.410156 158.800781 49.8125 160.199219 45.511719 C 161.898438 46.410156 167 48.609375 173.601562 47.609375 C 179.699219 46.609375 183.5 43.3125 185 42.011719 C 185.800781 46.609375 188.601562 59.910156 200.101562 71.109375 C 209 79.710938 218.800781 82.910156 223.5 84.109375 L 228.398438 98.609375 C 230.101562 95.511719 231.699219 92.410156 233.398438 89.210938 C 240 83.609375 243.5 84.410156 244.601562 84.8125 C 251 86.8125 252.398438 101.3125 247.800781 111.511719" fill="#ce8e72"/></g><g id="change2_2"><path d="M 238.398438 93.410156 C 239.800781 92.710938 241.199219 92.910156 242.101562 94.210938 C 243 95.511719 242.398438 96.710938 242.800781 98.109375 C 243.101562 99.3125 245 100.011719 245.898438 98.910156 C 247.699219 96.710938 246.398438 93.109375 244.300781 91.511719 C 242.199219 90.011719 239.300781 89.910156 237.101562 91.011719 C 235.398438 91.8125 236.800781 94.210938 238.398438 93.410156 Z M 179.398438 152.011719 C 177.601562 153.3125 176.101562 154.8125 173.898438 155.511719 C 172.398438 156.011719 173 158.109375 174.5 157.8125 C 177 157.3125 179.601562 156.609375 181.5 154.8125 C 183.101562 153.511719 181.101562 150.8125 179.398438 152.011719 Z M 159.398438 148.410156 C 158.101562 148.109375 157.699219 149.8125 158.898438 150.3125 C 169.601562 154.710938 182.398438 148.609375 188.898438 139.710938 C 190.101562 138.109375 187.800781 136.3125 186.300781 137.109375 C 177.199219 141.910156 171 150.710938 159.398438 148.410156 Z M 200.5 94.910156 C 192.5 88.210938 183 91.011719 175.800781 97.011719 C 174.699219 97.910156 176.199219 99.8125 177.300781 98.910156 C 179.800781 97.011719 182.199219 95.410156 185.199219 95.011719 C 184.601562 95.8125 184.199219 96.8125 184.199219 97.910156 C 184.199219 100.410156 186.300781 102.511719 188.800781 102.511719 C 191.300781 102.511719 193.398438 100.410156 193.398438 97.910156 C 193.398438 97.3125 193.300781 96.710938 193.101562 96.109375 C 194.699219 96.710938 196.300781 97.511719 197.898438 98.3125 C 199.898438 99.210938 202.5 96.609375 200.5 94.910156 Z M 134.800781 101.011719 C 132.601562 103.011719 136 106.410156 138.101562 104.3125 C 138.800781 103.609375 139.601562 102.910156 140.5 102.3125 C 140.5 102.511719 140.398438 102.710938 140.398438 102.8125 C 140.398438 105.3125 142.5 107.410156 145 107.410156 C 147.5 107.410156 149.601562 105.3125 149.601562 102.8125 C 149.601562 101.609375 149.101562 100.511719 148.398438 99.710938 C 149.898438 99.910156 151.398438 100.609375 152.898438 101.910156 C 153.898438 102.8125 155.300781 101.3125 154.398438 100.410156 C 148.601562 95.109375 140.398438 96.109375 134.800781 101.011719 Z M 174.5 89.3125 C 184.699219 87.609375 195 83.210938 205.199219 87.511719 C 206.601562 88.109375 207.699219 86.3125 206.398438 85.410156 C 196.199219 78.910156 184.199219 81.8125 173.101562 84.011719 C 169.601562 84.8125 171.101562 89.910156 174.5 89.3125 Z M 132.800781 94.109375 C 135.699219 93.3125 138.601562 92.8125 141.601562 92.3125 C 144.300781 91.8125 147.300781 92.109375 149.699219 90.710938 C 151.398438 89.710938 150.800781 87.511719 149.199219 86.8125 C 146.5 85.8125 143 86.910156 140.398438 87.8125 C 137.300781 88.710938 134.699219 90.210938 131.898438 91.8125 C 130.5 92.410156 131.398438 94.511719 132.800781 94.109375 Z M 164.101562 130.910156 C 165.199219 131.011719 165.5 129.109375 164.398438 128.910156 C 155.398438 127.511719 160.800781 116.710938 161.199219 112.011719 C 161.601562 106.511719 161.398438 101.011719 160.898438 95.609375 C 160.699219 92.910156 156.5 92.910156 156.699219 95.609375 C 157.101562 100.710938 157.5 105.8125 157.601562 110.910156 C 157.699219 115.109375 155.699219 119.109375 155.800781 123.109375 C 156 127.8125 159.601562 130.609375 164.101562 130.910156 Z M 203.199219 160.410156 C 193.398438 169.3125 178 178.109375 165.601562 168.210938 C 164.5 167.3125 162.800781 168.910156 164 169.8125 C 187.601562 190.109375 218.699219 154.710938 226.800781 134.410156 C 227.699219 132.210938 223.898438 130.609375 222.898438 132.710938 C 217.800781 143.210938 211.800781 152.609375 203.199219 160.410156 Z M 307.898438 374.710938 C 292.800781 401.710938 275.898438 427.8125 258 453.109375 C 255.898438 456.109375 260.800781 459.011719 262.898438 456.011719 C 280.800781 430.609375 296.398438 403.910156 310.199219 376.109375 C 311 374.609375 308.699219 373.210938 307.898438 374.710938 Z M 256.898438 456.109375 C 241.398438 455.410156 226.101562 456.210938 210.601562 454.609375 C 194.101562 452.910156 177.800781 449.710938 161.898438 444.910156 C 146.300781 440.3125 131.300781 434.210938 116.601562 427.3125 C 109.5 424.011719 102.601562 420.511719 95.699219 416.910156 C 89.5 413.710938 83.398438 409.511719 76.699219 407.210938 C 76.898438 406.8125 77.101562 406.3125 77.300781 405.910156 C 77.5 405.511719 77.601562 405.011719 77.5 404.511719 C 82.800781 389.410156 88.601562 373.710938 99 361.410156 C 99.199219 361.511719 99.300781 361.710938 99.5 361.8125 C 113.199219 369.3125 129.800781 372.910156 145 376.109375 C 160.5 379.410156 178 383.609375 193.800781 382.3125 C 195.5 382.210938 195.5 379.609375 193.800781 379.609375 C 177.800781 379.710938 160.601562 374.109375 145.101562 370.511719 C 136.800781 368.609375 128.800781 366.011719 120.898438 363.3125 C 126.898438 344.609375 132.800781 325.8125 138.601562 307.011719 C 139.699219 307.210938 141 306.710938 141.601562 305.609375 C 142.101562 305.511719 142.601562 305.3125 143.101562 304.910156 C 165 285.3125 193.300781 273.109375 218.199219 257.710938 C 219.398438 258.011719 220.898438 257.3125 221 255.609375 C 221.300781 248.3125 220.398438 240.910156 219.898438 233.511719 C 227.699219 233.8125 235.398438 234.011719 243.199219 233.3125 C 243.898438 233.511719 244.601562 233.410156 245.300781 232.910156 C 257.800781 222.910156 269.699219 212.3125 281.199219 201.3125 C 282.398438 200.210938 280.601562 198.511719 279.398438 199.511719 C 267.398438 209.511719 255.199219 219.3125 243 229.109375 C 234.898438 230.109375 226.800781 230.910156 218.699219 231.109375 C 218.199219 231.109375 217.898438 231.3125 217.699219 231.710938 C 217.5 231.910156 217.398438 232.210938 217.300781 232.511719 C 216.898438 240.011719 216.101562 247.710938 216.5 255.210938 C 190.699219 267.710938 162.800781 280.511719 141 299.410156 C 136.800781 278.710938 132.898438 257.710938 126.800781 237.410156 C 127.199219 237.3125 127.601562 237.011719 128 236.609375 C 138.699219 222.710938 148.398438 208.011719 157.699219 193.109375 C 158.5 191.910156 156.601562 190.8125 155.800781 192.011719 C 145.699219 206.410156 135.101562 220.511719 124.398438 234.511719 C 123.898438 235.210938 123.898438 235.910156 124.199219 236.410156 C 124 236.710938 124 237.011719 124 237.410156 C 127 259.710938 132.300781 281.710938 136.601562 303.8125 C 136.398438 304.011719 136.300781 304.210938 136.101562 304.410156 C 128.800781 323.3125 122 342.3125 115.800781 361.511719 C 111.101562 359.910156 106.300781 358.3125 101.5 356.8125 C 100.601562 356.511719 99.699219 356.8125 99.101562 357.3125 C 98.5 357.011719 97.699219 357.011719 97 357.710938 C 83.800781 371.3125 77 388.109375 70.800781 405.710938 C 70.300781 407.109375 71 408.3125 72.101562 408.910156 C 72 409.511719 72.199219 410.210938 72.800781 410.710938 C 78.5 415.410156 85.898438 418.511719 92.398438 421.910156 C 100.101562 425.910156 107.898438 429.8125 115.800781 433.410156 C 125.601562 437.910156 135.699219 442.210938 145.898438 445.8125 C 139.199219 447.410156 132.601562 449.8125 126.199219 451.609375 C 116.5 454.410156 106.800781 457.109375 97.101562 459.8125 C 87.898438 462.410156 78.601562 464.910156 69.398438 467.511719 C 58.398438 470.609375 47.101562 473.910156 35.699219 471.109375 C 34.601562 470.8125 34.199219 472.511719 35.199219 472.8125 C 54.300781 478.109375 74.398438 470.910156 92.898438 466.109375 C 103.101562 463.511719 113.300781 460.710938 123.398438 457.910156 C 133.5 455.109375 144.699219 453.109375 154.199219 448.609375 C 156.601562 449.410156 159 450.109375 161.398438 450.8125 C 176.5 455.210938 192 458.109375 207.601562 459.3125 C 223.601562 460.609375 241.101562 461.210938 256.800781 457.609375 C 258.101562 457.511719 257.898438 456.109375 256.898438 456.109375 Z M 82.601562 359.609375 C 79.300781 327.910156 78.800781 295.710938 82.601562 264.011719 C 82.800781 262.511719 80.199219 262.109375 79.898438 263.609375 C 74.300781 295.511719 72.699219 327.410156 76.898438 359.609375 C 77.300781 363.3125 83 363.410156 82.601562 359.609375 Z M 264 265.011719 C 254.398438 286.910156 246.800781 310.011719 240.300781 333.011719 C 239.300781 336.511719 233.898438 335.011719 234.898438 331.511719 C 241.5 307.8125 250.601562 285.410156 261.101562 263.3125 C 262.101562 261.410156 264.898438 263.109375 264 265.011719" fill="#293241"/></g></g></svg>